<?xml version="1.0" encoding="UTF-8" standalone="no"?>
<!-- Created with Inkscape (http://www.inkscape.org/) -->

<svg
   width="210mm"
   height="297mm"
   viewBox="0 0 210 297"
   version="1.1"
   id="svg1"
   xml:space="preserve"
   inkscape:version="1.3.2 (091e20e, 2023-11-25, custom)"
   sodipodi:docname="Cama.svg"
   xmlns:inkscape="http://www.inkscape.org/namespaces/inkscape"
   xmlns:sodipodi="http://sodipodi.sourceforge.net/DTD/sodipodi-0.dtd"
   xmlns="http://www.w3.org/2000/svg"
   xmlns:svg="http://www.w3.org/2000/svg"><sodipodi:namedview
     id="namedview1"
     pagecolor="#ffffff"
     bordercolor="#000000"
     borderopacity="0.25"
     inkscape:showpageshadow="2"
     inkscape:pageopacity="0.0"
     inkscape:pagecheckerboard="0"
     inkscape:deskcolor="#d1d1d1"
     inkscape:document-units="mm"
     showgrid="false"
     inkscape:zoom="0.5"
     inkscape:cx="617"
     inkscape:cy="465"
     inkscape:window-width="1920"
     inkscape:window-height="1001"
     inkscape:window-x="-9"
     inkscape:window-y="-9"
     inkscape:window-maximized="1"
     inkscape:current-layer="layer1"><inkscape:grid
       type="axonomgrid"
       id="grid1"
       units="mm"
       originx="0"
       originy="0"
       spacingx="0"
       spacingy="1"
       empcolor="#0099e5"
       empopacity="0.30196078"
       color="#0099e5"
       opacity="0.14901961"
       empspacing="5"
       dotted="false"
       gridanglex="30"
       gridanglez="30"
       visible="false" /></sodipodi:namedview><defs
     id="defs1"><inkscape:path-effect
       effect="fillet_chamfer"
       id="path-effect25"
       is_visible="true"
       lpeversion="1"
       nodesatellites_param="F,0,0,1,0,0,0,1 @ F,0,0,1,0,0,0,1 @ F,0,0,1,0,0,0,1 @ F,0,0,1,0,0,0,1"
       radius="0"
       unit="px"
       method="auto"
       mode="F"
       chamfer_steps="1"
       flexible="false"
       use_knot_distance="true"
       apply_no_radius="true"
       apply_with_radius="true"
       only_selected="false"
       hide_knots="false" /><inkscape:path-effect
       effect="fillet_chamfer"
       id="path-effect24"
       is_visible="true"
       lpeversion="1"
       nodesatellites_param="F,0,0,1,0,0,0,1 @ F,0,0,1,0,0,0,1 @ F,0,0,1,0,0,0,1"
       radius="0"
       unit="px"
       method="auto"
       mode="F"
       chamfer_steps="1"
       flexible="false"
       use_knot_distance="true"
       apply_no_radius="true"
       apply_with_radius="true"
       only_selected="false"
       hide_knots="false" /></defs><g
     inkscape:label="Camada 1"
     inkscape:groupmode="layer"
     id="layer1"><g
       id="g94"><path
         d="m 191.39142,194.49976 v -9.99991 l -8.65994,5.00021 z"
         style="fill:#503421;stroke:#503421;stroke-width:0.264583;stroke-opacity:1"
         id="path92" /><path
         d="m 23.382552,146.5001 -0.06615,0.11524 102.388584,59.11319 v -14.00018 l 8.46305,4.88704 0.0661,-0.11472 v -5.2e-4 h 5.2e-4 l 0.0661,-0.11524 -8.52506,-4.84776 5.86114,-3.38481 8.52661,4.92425 0.0672,0.0387 0.0656,-0.11523 0.0651,-0.11524 -8.72453,-5.03742 -2.73162,1.57613 -3.39773,1.96112 -0.0326,6.84403 -0.0336,7.04091 -101.925563,-58.84654 -0.06666,-0.0382 z"
         style="fill:#503421;stroke:#000000;stroke-width:0.264583"
         id="path87" /><path
         d="m 182.73148,158.49989 8.65994,5.00021 6.06216,-3.50005 -8.65994,-5.00021 z"
         style="fill:#ad8359;stroke:#ad8359;stroke-width:0.264583;stroke-opacity:1"
         id="path94" /><path
         d="m 95.262919,111.51516 v 0.48472 3.64371 l -44.299621,25.57673 -15.456421,-8.7204 v -3.99975 l -5.996017,3.4618 v 0.0765 l 0.799951,0.46147 98.594499,56.92366 2.73162,-1.57613 8.72453,5.03742 -0.0651,0.11524 c 0.86603,-0.5 48.49729,-27.48515 48.49729,-27.48515 l -6.06216,-3.50004 z"
         style="fill:#bfb1b1;stroke:#bfb1b1;stroke-width:0.264583;stroke-opacity:1"
         id="path80" /><path
         d="m 140.16354,193.07659 -8.52661,-4.92425 -5.86114,3.38481 8.52506,4.84776 -0.0661,0.11524 z"
         style="fill:#b78e63;stroke:#b78e63;stroke-width:0.264583;stroke-opacity:1"
         id="path88" /><path
         d="m 140.29635,193.00011 v 10.99984 l 48.49729,-27.99984 c 0,-3.66667 3.3e-4,1.13343 0,-10.48515 0,0 -47.63126,26.98515 -48.49729,27.48515 z"
         style="fill:#938383;stroke:#938383;stroke-width:0.264583;stroke-opacity:1"
         id="path90" /><path
         d="m 182.73148,162.01492 6.06216,3.50004 c 3.3e-4,11.61858 0,6.81848 0,10.48515 l 2.59778,1.49965 V 163.5001 l -8.65994,-5.00021 z"
         style="fill:#583824;stroke:#583824;stroke-width:0.264583;fill-opacity:1;stroke-opacity:1"
         id="path93" /><path
         d="m 188.79364,176.00011 -48.49729,27.99984 v 2.99982 l 51.09507,-29.50001 z"
         style="fill:#ac8157;stroke:#ac8157;stroke-width:0.264583;fill-opacity:1;stroke-opacity:1"
         id="path91" /><path
         d="m 197.45358,160.00005 -6.06216,3.50005 v 13.99966 l -51.09507,29.50001 v -13.99966 l -0.0656,0.11523 -0.0672,-0.0387 -5.92884,3.42356 h -5.2e-4 v 5.2e-4 30.99914 l 6.06217,-3.50005 v -9.9999 l 51.09507,-29.50001 v 9.99991 l 6.06216,-3.49953 z"
         style="fill:#8e6441;stroke:#8e6441;stroke-width:0.264583;stroke-opacity:1"
         id="path89" /><path
         d="m 77.942529,69.999862 -6.062679,3.500044 8.660454,5.000212 6.062162,-3.500045 z"
         style="fill:#b0865c;stroke:#b0865c;stroke-width:0.264583;stroke-opacity:1"
         id="path73" /><path
         d="m 71.87985,77.500179 8.660454,4.999695 V 78.500118 L 71.87985,73.499906 Z"
         style="fill:#5a341f;stroke:#5a341f;stroke-width:0.264583;stroke-opacity:1"
         id="path74" /><path
         d="m 24.248649,104.99979 5.196065,3.00034 v 3.99975 L 80.540304,82.499874 71.87985,77.500179 Z"
         style="fill:#ad8359;stroke:#ad8359;stroke-width:0.264583;stroke-opacity:1"
         id="path71" /><path
         d="m 14.722616,106.49996 8.659936,5.00021 6.062162,-3.50004 -5.196065,-3.00034 -3.463871,-1.99988 z"
         style="fill:#aa8057;stroke:#aa8057;stroke-width:0.264583;stroke-opacity:1"
         id="path72" /><path
         d="m 29.630233,142.89309 95.844797,55.33564 0.0326,-6.84403 3.39773,-1.96112 -98.594499,-56.92366 -0.799951,-0.46147 v 10.78539 z"
         style="fill:#5c4b49;stroke:#5c4b49;stroke-width:0.264583;stroke-opacity:1"
         id="path79" /><path
         d="m 134.23418,227.49981 v -30.99914 l -0.0661,0.11472 -8.46305,-4.88704 v 14.00018 l -102.388584,-59.11319 0.06615,-0.11524 v -34.99993 l -8.659936,-5.00021 v 51.99993 l 8.659936,5.00021 v -11.00036 l 6.062162,3.50004 96.129016,55.49997 v 11.00036 z"
         style="fill:#604029;stroke:#604029;stroke-width:0.264583;stroke-opacity:1"
         id="path76" /><path
         d="m 29.444714,155.99978 -6.062162,-3.50004 v 11.00036 l 6.062162,-3.50005 z"
         style="fill:#7f5839;stroke:#7f5839;stroke-width:0.264583;stroke-opacity:1"
         id="path77" /><path
         d="m 23.515877,146.4231 101.925563,58.84654 0.0336,-7.04091 -95.844797,-55.33564 z"
         style="fill:#a87d54;stroke:#a87d54;stroke-width:0.264583;stroke-opacity:1"
         id="path78" /><path
         d="m 86.602466,75.000073 -6.062162,3.500045 v 3.999756 l -51.09559,29.500006 v -3.99975 l -6.062162,3.50004 v 34.99993 l 0.06666,-0.11524 0.06666,0.0382 6.114356,-3.53001 -0.119373,-0.0693 v -10.78539 l -0.06615,-0.0382 6.062163,-3.50004 0.167948,-0.0971 5.894214,-3.4029 38.525297,-22.24257 6.50813,3.7574 z"
         style="fill:#855b3b;stroke:#855b3b;stroke-width:0.264583;stroke-opacity:1"
         id="path75" /><path
         d="m 86.602466,106.51495 -6.50813,-3.7574 -38.525297,22.24257 9.52655,5.49992 38.52478,-22.24257 z"
         style="fill:#e1dfdf;stroke:#e1dfdf;stroke-width:0.264583;stroke-opacity:1"
         id="path86" /><path
         d="m 95.262919,111.51516 -44.299621,25.71471 v 3.99045 l 44.299621,-25.57673 v -3.64371 z"
         style="fill:#c8c4c4;stroke:#c8c4c4;stroke-width:0.264583;stroke-opacity:1"
         id="path81" /><path
         d="m 51.095589,133.49986 v -2.99982 l -9.52655,-5.49992 v 2.99982 z"
         style="fill:#aaa7a6;stroke:#aaa7a6;stroke-width:0.264583;stroke-opacity:1"
         id="path85" /><path
         d="m 89.620369,108.25747 -38.52478,22.24257 v 2.99982 l 38.52478,-22.24257 z"
         style="fill:#cecbcb;stroke:#cecbcb;stroke-width:0.264583;stroke-opacity:1"
         id="path84" /><path
         d="m 89.620369,108.25747 v 2.99982 l -38.52478,22.24257 -9.52655,-5.49992 v -2.99982 l -5.894214,3.4029 15.288473,8.82685 44.299621,-25.71471 z"
         style="fill:#e0dfdf;stroke:#e0dfdf;stroke-width:0.264583;stroke-opacity:1"
         id="path83" /><path
         d="m 50.963298,141.22032 v -3.99045 l -15.288473,-8.82685 -0.167948,0.0971 v 3.99975 z"
         style="fill:#a09b9b;stroke:#a09b9b;stroke-width:0.264583;stroke-opacity:1"
         id="path82" /></g></g></svg>
