<?xml version="1.0" encoding="UTF-8" standalone="no"?>
<!-- Created with Inkscape (http://www.inkscape.org/) -->

<svg
   width="210mm"
   height="297mm"
   viewBox="0 0 210 297"
   version="1.1"
   id="svg1"
   xml:space="preserve"
   inkscape:version="1.3.2 (091e20e, 2023-11-25, custom)"
   sodipodi:docname="papel_peq.svg"
   xmlns:inkscape="http://www.inkscape.org/namespaces/inkscape"
   xmlns:sodipodi="http://sodipodi.sourceforge.net/DTD/sodipodi-0.dtd"
   xmlns="http://www.w3.org/2000/svg"
   xmlns:svg="http://www.w3.org/2000/svg"><sodipodi:namedview
     id="namedview1"
     pagecolor="#ffffff"
     bordercolor="#000000"
     borderopacity="0.25"
     inkscape:showpageshadow="2"
     inkscape:pageopacity="0.0"
     inkscape:pagecheckerboard="0"
     inkscape:deskcolor="#d1d1d1"
     inkscape:document-units="mm"
     inkscape:zoom="0.99150695"
     inkscape:cx="51.436856"
     inkscape:cy="690.86757"
     inkscape:window-width="1920"
     inkscape:window-height="1046"
     inkscape:window-x="-11"
     inkscape:window-y="-11"
     inkscape:window-maximized="1"
     inkscape:current-layer="layer1" /><defs
     id="defs1"><inkscape:perspective
       sodipodi:type="inkscape:persp3d"
       inkscape:vp_x="0 : 540 : 1"
       inkscape:vp_y="0 : 1000 : 0"
       inkscape:vp_z="1920 : 540 : 1"
       inkscape:persp3d-origin="960 : 360 : 1"
       id="perspective38" /><filter
       inkscape:label="Dark and Glow"
       inkscape:menu="Shadows and Glows"
       inkscape:menu-tooltip="Darkens the edge with an inner blur and adds a flexible glow"
       height="1.0160783"
       width="1.0242492"
       y="-0.0080391307"
       x="-0.012124591"
       style="color-interpolation-filters:sRGB;"
       id="filter7"><feGaussianBlur
         stdDeviation="4"
         result="result1"
         id="feGaussianBlur2" /><feComposite
         in="result1"
         in2="result1"
         result="result4"
         operator="in"
         id="feComposite2" /><feGaussianBlur
         stdDeviation="2"
         result="result6"
         in="result4"
         id="feGaussianBlur3" /><feComposite
         operator="xor"
         in="result6"
         in2="result4"
         result="result8"
         id="feComposite3" /><feComposite
         operator="atop"
         result="fbSourceGraphic"
         in="result4"
         in2="result8"
         id="feComposite4" /><feSpecularLighting
         specularExponent="10"
         specularConstant="1.3"
         surfaceScale="3"
         lighting-color="rgb(255,255,255)"
         result="result1"
         in="fbSourceGraphic"
         id="feSpecularLighting4"><feDistantLight
           azimuth="235"
           elevation="55"
           id="feDistantLight4" /></feSpecularLighting><feComposite
         operator="atop"
         result="result2"
         in="result1"
         in2="fbSourceGraphic"
         id="feComposite5" /><feComposite
         k3="1"
         k2="1"
         operator="arithmetic"
         result="result4"
         in="fbSourceGraphic"
         in2="result2"
         id="feComposite6" /><feComposite
         operator="over"
         in="result4"
         in2="SourceGraphic"
         id="feComposite7" /><feBlend
         mode="multiply"
         in2="result2"
         id="feBlend7"
         result="fbSourceGraphic" /><feColorMatrix
         result="fbSourceGraphicAlpha"
         in="fbSourceGraphic"
         values="0 0 0 -1 0 0 0 0 -1 0 0 0 0 -1 0 0 0 0 1 0"
         id="feColorMatrix13" /><feMorphology
         id="feMorphology13"
         radius="4.3"
         in="fbSourceGraphicAlpha"
         result="result91" /><feComposite
         id="feComposite13"
         operator="out"
         in="fbSourceGraphic"
         in2="result91" /><feGaussianBlur
         id="feGaussianBlur13"
         result="result0"
         stdDeviation="1.2" /><feDiffuseLighting
         id="feDiffuseLighting13"
         diffuseConstant="1"><feDistantLight
           id="feDistantLight13"
           elevation="66"
           azimuth="225" /></feDiffuseLighting><feBlend
         id="feBlend13"
         mode="multiply"
         in2="fbSourceGraphic" /><feComposite
         id="feComposite14"
         operator="in"
         in2="fbSourceGraphicAlpha"
         result="fbSourceGraphic" /><feColorMatrix
         result="fbSourceGraphicAlpha"
         in="fbSourceGraphic"
         values="0 0 0 -1 0 0 0 0 -1 0 0 0 0 -1 0 0 0 0 1 0"
         id="feColorMatrix14" /><feTurbulence
         id="feTurbulence14"
         type="fractalNoise"
         numOctaves="4"
         seed="1"
         baseFrequency="0.015 0.015"
         result="turbulence"
         in="fbSourceGraphic" /><feDisplacementMap
         id="feDisplacementMap14"
         in="fbSourceGraphic"
         in2="turbulence"
         scale="6.6"
         yChannelSelector="G"
         xChannelSelector="R"
         result="fbSourceGraphic" /><feColorMatrix
         result="fbSourceGraphicAlpha"
         in="fbSourceGraphic"
         values="0 0 0 -1 0 0 0 0 -1 0 0 0 0 -1 0 0 0 0 1 0"
         id="feColorMatrix15" /><feTurbulence
         id="feTurbulence15"
         type="fractalNoise"
         numOctaves="4"
         seed="1"
         baseFrequency="0.015 0.016"
         result="turbulence"
         in="fbSourceGraphic" /><feDisplacementMap
         id="feDisplacementMap15"
         in="fbSourceGraphic"
         in2="turbulence"
         scale="7.7"
         yChannelSelector="G"
         xChannelSelector="R"
         result="fbSourceGraphic" /><feColorMatrix
         result="fbSourceGraphicAlpha"
         in="fbSourceGraphic"
         values="0 0 0 -1 0 0 0 0 -1 0 0 0 0 -1 0 0 0 0 1 0"
         id="feColorMatrix16" /><feTurbulence
         id="feTurbulence16"
         type="fractalNoise"
         numOctaves="4"
         seed="1"
         baseFrequency="0.015 0.016"
         result="turbulence"
         in="fbSourceGraphic" /><feDisplacementMap
         id="feDisplacementMap16"
         in="fbSourceGraphic"
         in2="turbulence"
         scale="7.7"
         yChannelSelector="G"
         xChannelSelector="R"
         result="fbSourceGraphic" /><feColorMatrix
         result="fbSourceGraphicAlpha"
         in="fbSourceGraphic"
         values="0 0 0 -1 0 0 0 0 -1 0 0 0 0 -1 0 0 0 0 1 0"
         id="feColorMatrix17" /><feTurbulence
         id="feTurbulence17"
         type="fractalNoise"
         numOctaves="4"
         seed="1"
         baseFrequency="0.015 0.016"
         result="turbulence"
         in="fbSourceGraphic" /><feDisplacementMap
         id="feDisplacementMap17"
         in="fbSourceGraphic"
         in2="turbulence"
         scale="7.7"
         yChannelSelector="G"
         xChannelSelector="R"
         result="fbSourceGraphic" /><feColorMatrix
         result="fbSourceGraphicAlpha"
         in="fbSourceGraphic"
         values="0 0 0 -1 0 0 0 0 -1 0 0 0 0 -1 0 0 0 0 1 0"
         id="feColorMatrix18" /><feTurbulence
         id="feTurbulence18"
         type="fractalNoise"
         numOctaves="4"
         seed="1"
         baseFrequency="0.015 0.016"
         result="turbulence"
         in="fbSourceGraphic" /><feDisplacementMap
         id="feDisplacementMap18"
         in="fbSourceGraphic"
         in2="turbulence"
         scale="7.7"
         yChannelSelector="G"
         xChannelSelector="R"
         result="fbSourceGraphic" /><feColorMatrix
         result="fbSourceGraphicAlpha"
         in="fbSourceGraphic"
         values="0 0 0 -1 0 0 0 0 -1 0 0 0 0 -1 0 0 0 0 1 0"
         id="feColorMatrix19" /><feTurbulence
         id="feTurbulence19"
         type="fractalNoise"
         numOctaves="4"
         seed="1"
         baseFrequency="0.015 0.016"
         result="turbulence"
         in="fbSourceGraphic" /><feDisplacementMap
         id="feDisplacementMap19"
         in="fbSourceGraphic"
         in2="turbulence"
         scale="7.7"
         yChannelSelector="G"
         xChannelSelector="R"
         result="fbSourceGraphic" /><feColorMatrix
         result="fbSourceGraphicAlpha"
         in="fbSourceGraphic"
         values="0 0 0 -1 0 0 0 0 -1 0 0 0 0 -1 0 0 0 0 1 0"
         id="feColorMatrix20" /><feTurbulence
         id="feTurbulence20"
         type="fractalNoise"
         numOctaves="4"
         seed="1"
         baseFrequency="0.015 0.016"
         result="turbulence"
         in="fbSourceGraphic" /><feDisplacementMap
         id="feDisplacementMap20"
         in="fbSourceGraphic"
         in2="turbulence"
         scale="9.5"
         yChannelSelector="G"
         xChannelSelector="R"
         result="fbSourceGraphic" /><feColorMatrix
         result="fbSourceGraphicAlpha"
         in="fbSourceGraphic"
         values="0 0 0 -1 0 0 0 0 -1 0 0 0 0 -1 0 0 0 0 1 0"
         id="feColorMatrix21" /><feGaussianBlur
         id="feGaussianBlur21"
         stdDeviation="5"
         result="result6"
         in="fbSourceGraphic" /><feComposite
         id="feComposite21"
         result="result8"
         in="fbSourceGraphic"
         operator="atop"
         in2="result6" /><feComposite
         id="feComposite22"
         result="result9"
         operator="over"
         in2="fbSourceGraphicAlpha"
         in="result8" /><feColorMatrix
         id="feColorMatrix22"
         values="1 0 0 0 0 0 1 0 0 0 0 0 1 0 0 0 0 0 1 0 "
         result="result10" /><feBlend
         id="feBlend22"
         in="result10"
         mode="normal"
         in2="result6"
         result="fbSourceGraphic" /><feColorMatrix
         result="fbSourceGraphicAlpha"
         in="fbSourceGraphic"
         values="0 0 0 -1 0 0 0 0 -1 0 0 0 0 -1 0 0 0 0 1 0"
         id="feColorMatrix29" /><feTurbulence
         id="feTurbulence29"
         result="result0"
         seed="0"
         baseFrequency="1"
         numOctaves="5"
         type="fractalNoise"
         in="fbSourceGraphic" /><feConvolveMatrix
         id="feConvolveMatrix29"
         result="result5"
         order="5 5"
         kernelMatrix="-2 0 0 0 -2 0 -2 0 -2 0 0 0 -10 0 0 0 -2 0 -2 0 -2 0 0 0 -2 "
         targetX="2"
         targetY="2" /><feComposite
         id="feComposite29"
         result="result2"
         k3="0.5"
         k2="0.5"
         k1="1.5"
         operator="arithmetic"
         in="result5"
         in2="fbSourceGraphic" /><feColorMatrix
         id="feColorMatrix30"
         in="result2"
         type="luminanceToAlpha"
         result="result2" /><feDiffuseLighting
         id="feDiffuseLighting30"
         surfaceScale="5"
         result="result1"
         diffuseConstant="0.6"><feDistantLight
           id="feDistantLight30"
           elevation="35"
           azimuth="225" /></feDiffuseLighting><feComposite
         id="feComposite30"
         operator="arithmetic"
         in="result1"
         k1="1.5"
         k3="0.5"
         result="result3"
         in2="fbSourceGraphic" /><feBlend
         id="feBlend30"
         in="result3"
         mode="normal"
         result="result6"
         in2="result1" /><feComposite
         id="feComposite31"
         operator="in"
         in2="fbSourceGraphic"
         result="fbSourceGraphic" /><feColorMatrix
         result="fbSourceGraphicAlpha"
         in="fbSourceGraphic"
         values="0 0 0 -1 0 0 0 0 -1 0 0 0 0 -1 0 0 0 0 1 0"
         id="feColorMatrix31" /><feGaussianBlur
         id="feGaussianBlur31"
         stdDeviation="5"
         result="result6"
         in="fbSourceGraphic" /><feComposite
         id="feComposite32"
         result="result8"
         in="fbSourceGraphic"
         operator="atop"
         in2="result6" /><feComposite
         id="feComposite33"
         result="result9"
         operator="over"
         in2="fbSourceGraphicAlpha"
         in="result8" /><feColorMatrix
         id="feColorMatrix33"
         values="1 0 0 0 0 0 1 0 0 0 0 0 1 0 0 0 0 0 1 0 "
         result="result10" /><feBlend
         id="feBlend33"
         in="result10"
         mode="normal"
         in2="result6" /></filter><filter
       inkscape:label="Pixellize"
       inkscape:menu="Pixel Tools"
       inkscape:menu-tooltip="Reduce or remove antialiasing around shapes"
       style="color-interpolation-filters:sRGB;"
       id="filter12"
       x="0"
       y="0"
       width="1"
       height="1"><feColorMatrix
         values="1 0 0 0 0 0 1 0 0 0 0 0 1 0 0 0 0 0 1000 -500 "
         id="feColorMatrix12" /></filter></defs><g
     inkscape:label="Layer 1"
     inkscape:groupmode="layer"
     id="layer1"><g
       inkscape:label="Camada 1"
       id="layer1-7"
       transform="matrix(21.585076,0,0,21.585076,190086.42,177996.53)"><path
         d="m -8801.5469,-8241.2598 -3.2715,1.8887 v 0 l 3.2715,1.8906 3.2735,-1.8906 z"
         style="fill:#c8ab37"
         id="path19" /><path
         d="m -8801.5469,-8237.3633 v -0.1172 l -3.2715,-1.8906 v 0.1172 z"
         style="fill:#786721"
         id="path20" /><path
         d="m -8798.2734,-8239.3711 -3.2735,1.8906 v 0.1172 l 3.2735,-1.8906 z"
         style="fill:#786721"
         id="path21" /></g><path
       id="path1"
       style="fill:#554400;stroke-width:0.264583"
       d="m 103.29447,117.2006 c -0.0924,0.0794 -0.19217,0.14872 -0.28939,0.22169 0.10901,-0.0248 0.21802,-0.049 0.3266,-0.0755 0.0473,-0.0139 0.0959,-0.0216 0.14366,-0.0336 z m -7.468278,7.50083 c -0.05698,0.0373 -0.114579,0.0733 -0.171566,0.11059 -0.07059,0.0449 -0.1385,0.0937 -0.208772,0.13901 0.04659,-0.0247 0.06717,-0.0355 0.120406,-0.0636 0.04767,-0.0274 0.0953,-0.055 0.143143,-0.0822 0.03896,-0.0346 0.07783,-0.0693 0.116789,-0.10387 z" /><path
       style="fill:#554400;stroke-width:0.264583"
       id="path9"
       d="m 52.729309,152.73951 c 0.719995,-0.40862 1.203659,-1.10576 1.664624,-1.77278 0.401291,-0.56723 0.721579,-1.18454 1.090017,-1.77198 0.327964,-0.52274 0.800161,-0.89211 1.312005,-1.21977 0.453599,-0.30653 0.994651,-0.39786 1.515822,-0.52605 0.419714,-0.11685 0.855154,-0.18405 1.264285,-0.33542 0.393835,-0.17066 0.513397,-0.36215 0.693904,-0.73658 0.255908,-0.50821 0.553077,-0.99405 0.825682,-1.49357 0.188929,-0.30321 0.326684,-0.64045 0.551096,-0.92097 0.131511,-0.16438 0.276913,-0.3044 0.424198,-0.45434 0.418225,-0.38485 0.888873,-0.71459 1.393357,-0.97716 0.268465,-0.13973 0.537242,-0.24453 0.816054,-0.36035 0.896665,-0.3705 1.834357,-0.63079 2.757266,-0.92731 1.15866,-0.39959 2.309069,-0.82215 3.446094,-1.27963 0.599657,-0.2698 1.221084,-0.53413 1.750727,-0.93261 0.09052,-0.0681 0.172424,-0.14695 0.258633,-0.22043 0.467807,-0.42813 0.929497,-0.8634 1.425218,-1.25947 0.483893,-0.37583 0.955534,-0.76803 1.451959,-1.12733 0.51675,-0.37232 1.020598,-0.76101 1.545042,-1.12285 0.214723,-0.12436 0.438669,-0.25602 0.683477,-0.31347 0.366014,-0.0859 0.75865,-0.0914 1.131454,-0.12144 0.877136,-0.0374 1.747173,-0.16159 2.588318,-0.41322 0.721601,-0.28632 1.360344,-0.65318 1.963102,-1.13985 0.484836,-0.41377 0.86209,-0.92877 1.234943,-1.44075 0.370208,-0.50239 0.745403,-1.00657 1.184788,-1.45174 0.30947,-0.31354 0.415936,-0.38795 0.751668,-0.6663 0.465215,-0.3632 0.977366,-0.68183 1.560981,-0.80927 0.108987,-0.0238 0.220133,-0.0363 0.330203,-0.0545 1.085273,-0.10993 2.160288,-0.28121 3.232279,-0.48031 0.951032,-0.16678 1.904426,-0.3738 2.776477,-0.80352 0.141494,-0.0697 0.276153,-0.15252 0.414229,-0.22879 0.330488,-0.20025 0.665006,-0.3985 0.956696,-0.65448 0.24474,-0.21478 0.453247,-0.46521 0.659916,-0.71527 0.466873,-0.63491 0.841036,-1.33192 1.23372,-2.01371 0.427686,-0.76662 0.944976,-1.46744 1.548728,-2.10265 0.338175,-0.32936 0.749639,-0.61044 1.207629,-0.74385 0.10073,-0.0293 0.20405,-0.0489 0.30607,-0.0733 0.39555,-0.10438 0.80502,-0.13609 1.20184,-0.23276 0.16882,-0.0411 0.33583,-0.0894 0.5042,-0.1323 0.33074,-0.0954 0.67082,-0.15843 0.99925,-0.26218 0.27184,-0.0859 0.38355,-0.13865 0.65009,-0.24831 0.43609,-0.20335 0.22279,-0.10312 0.63996,-0.30054 0,0 -0.66613,-0.44015 -0.66613,-0.44015 v 0 c -0.41365,0.198 -0.20172,0.0987 -0.636,0.29748 -0.53628,0.21373 -1.08877,0.36309 -1.64987,0.49718 -0.16726,0.0431 -0.33346,0.0906 -0.50153,0.13043 -0.39683,0.0941 -0.8049,0.1329 -1.19997,0.23664 -0.105006,0.0261 -0.211593,0.0465 -0.315021,0.0783 -0.464754,0.14287 -0.88033,0.44112 -1.221732,0.77881 -0.599986,0.64528 -1.116227,1.35449 -1.546945,2.12462 -0.396793,0.67461 -0.7766,1.36297 -1.240642,1.99457 -0.203192,0.24556 -0.407538,0.49208 -0.648409,0.70267 -0.287851,0.25167 -0.616725,0.44997 -0.941816,0.6483 -0.136242,0.0747 -0.269312,0.15547 -0.408723,0.22405 -0.865315,0.42573 -1.811515,0.6284 -2.754461,0.79662 -0.400322,0.0729 -0.897017,0.16658 -1.301038,0.22722 -0.6486,0.0974 -1.302621,0.15065 -1.952562,0.23706 -0.112498,0.0201 -0.226255,0.0341 -0.337497,0.0603 -0.588211,0.13843 -1.100254,0.47283 -1.566291,0.84499 -0.347636,0.29172 -0.432879,0.3495 -0.754896,0.67621 -0.441108,0.44753 -0.825767,0.94938 -1.198655,1.45369 -0.374255,0.5024 -0.752327,1.00781 -1.227087,1.42154 -0.586412,0.47203 -1.237382,0.84859 -1.942954,1.1159 -0.837997,0.24576 -1.703615,0.36593 -2.576108,0.4015 -0.381577,0.0293 -0.783251,0.035 -1.156581,0.12958 -0.248534,0.063 -0.473496,0.20585 -0.691272,0.33398 -0.52165,0.36623 -1.026713,0.75452 -1.545873,1.12412 -0.496961,0.36048 -0.966176,0.75749 -1.452925,1.13153 -0.492961,0.39975 -0.95894,0.8311 -1.424564,1.26197 -0.08492,0.0706 -0.166267,0.1458 -0.254749,0.21192 -0.525335,0.39257 -1.134554,0.65975 -1.727673,0.92892 -1.1322,0.46308 -2.280127,0.88571 -3.439089,1.27711 -0.928555,0.29328 -1.873231,0.54582 -2.771338,0.92624 -0.275741,0.11689 -0.556104,0.22914 -0.821473,0.36904 -0.509881,0.26882 -0.984319,0.60526 -1.412568,0.99011 -0.140155,0.14227 -0.309179,0.30636 -0.434989,0.46289 -0.227094,0.28254 -0.363267,0.62422 -0.553143,0.93045 -0.27533,0.49948 -0.56755,0.98933 -0.834115,1.49334 -0.173241,0.35377 -0.286157,0.52749 -0.661995,0.68244 -0.408787,0.1399 -0.836414,0.21864 -1.252633,0.33347 -0.529645,0.12991 -1.075264,0.22843 -1.53189,0.54754 -0.517236,0.33873 -0.993997,0.71996 -1.327584,1.25105 -0.369697,0.58519 -0.681513,1.20606 -1.078865,1.77454 -0.452704,0.65441 -0.926377,1.35483 -1.659744,1.71736 z" /><path
       style="fill:#554400;stroke-width:0.264583"
       id="path10"
       d="m 66.565329,158.51329 c 0.713973,-0.78861 1.454325,-1.55423 2.190914,-2.32205 0.608156,-0.60951 1.207276,-1.23324 1.878222,-1.77514 0.451398,-0.36457 0.479303,-0.37002 0.962395,-0.70282 1.032362,-0.67648 2.163231,-1.17797 3.307742,-1.63 0.743397,-0.3004 1.50342,-0.58532 2.199386,-0.98892 0.141949,-0.0823 0.277616,-0.17502 0.416427,-0.26254 0.890776,-0.57752 1.447216,-1.49513 2.033596,-2.35286 0.357177,-0.53814 0.735732,-1.08732 1.287322,-1.4473 0.436375,-0.28479 0.753978,-0.3767 1.246137,-0.56955 1.752934,-0.60582 3.56344,-1.00563 5.368796,-1.41586 0.648845,-0.13929 1.289547,-0.31242 1.926142,-0.49902 0.389409,-0.11413 0.566838,-0.15949 0.940017,-0.32123 0.163254,-0.0708 0.320763,-0.1541 0.481142,-0.23115 0.62348,-0.31793 1.230821,-0.6822 1.784078,-1.11283 0.219117,-0.17055 0.465095,-0.39717 0.672714,-0.58331 0.692647,-0.60936 1.245224,-1.35001 1.841952,-2.04752 0.146905,-0.17172 0.300564,-0.33753 0.450845,-0.5063 0.883121,-1.04731 1.945481,-1.90817 3.005219,-2.76613 0.665086,-0.50481 1.309706,-1.06396 2.058065,-1.44689 0.13243,-0.0678 0.27076,-0.12333 0.40613,-0.18499 1.07286,-0.44996 2.18155,-0.80538 3.25553,-1.25252 0.47386,-0.22694 0.97811,-0.41879 1.40277,-0.73602 0.14366,-0.10731 0.34686,-0.30316 0.47782,-0.42513 0.33296,-0.28183 0.6026,-0.63086 0.94141,-0.90606 0.27817,-0.22595 0.35599,-0.25562 0.66936,-0.44067 0.65751,-0.3595 1.37966,-0.56863 2.07873,-0.82813 0.60829,-0.22581 0.57311,-0.21889 1.16295,-0.46985 0.75503,-0.32455 1.49692,-0.67802 2.25103,-1.00463 0.46123,-0.22265 0.96548,-0.37359 1.40352,-0.64381 0.08,-0.0493 0.15371,-0.10808 0.23057,-0.16212 0.54552,-0.39635 0.92509,-0.95968 1.3517,-1.47089 0.23998,-0.22469 0.11791,-0.12379 0.36367,-0.30572 0,0 -0.68264,-0.43112 -0.68264,-0.43112 v 0 c -0.2491,0.19454 -0.12525,0.0874 -0.36906,0.3242 -0.41677,0.51079 -0.79258,1.06818 -1.34091,1.45171 -0.50176,0.3439 -1.06602,0.5508 -1.61972,0.79629 -0.75146,0.32396 -1.48519,0.68578 -2.23418,1.01532 -0.58617,0.24931 -0.55331,0.24361 -1.15887,0.46711 -0.70645,0.26074 -1.43791,0.46676 -2.10144,0.8311 -0.31785,0.1892 -0.39924,0.22167 -0.68255,0.45099 -0.33979,0.27504 -0.61072,0.6235 -0.94419,0.90571 -0.13829,0.12797 -0.31805,0.3014 -0.47015,0.41401 -0.42071,0.31151 -0.9137,0.51038 -1.38379,0.73121 -1.07259,0.45449 -2.18046,0.81497 -3.25965,1.25282 -0.13735,0.0633 -0.2777,0.12049 -0.412042,0.18998 -0.748519,0.38716 -1.381455,0.96323 -2.049208,1.46734 -0.530889,0.43405 -1.076108,0.85729 -1.584942,1.31739 -0.504565,0.45625 -0.967091,0.95837 -1.425117,1.46022 -0.761082,0.85187 -1.45379,1.76944 -2.305492,2.53604 -0.205258,0.18572 -0.445709,0.40962 -0.663096,0.57948 -0.548825,0.42885 -1.153795,0.78845 -1.774256,1.10193 -0.160054,0.0748 -0.317471,0.15554 -0.480163,0.22441 -0.350832,0.14851 -0.567949,0.2092 -0.93204,0.31904 -0.629086,0.18979 -1.26225,0.36653 -1.904053,0.50873 -1.808535,0.41668 -3.6205,0.82826 -5.382043,1.42035 -0.501189,0.19442 -0.830725,0.28871 -1.275363,0.57929 -0.557421,0.36427 -0.941093,0.9211 -1.299562,1.46667 -0.575386,0.85393 -1.13299,1.75493 -2.017701,2.32432 -0.138121,0.0857 -0.273357,0.17619 -0.414364,0.25704 -0.694735,0.39829 -1.451465,0.68024 -2.189036,0.98574 -1.145214,0.4608 -2.278396,0.96874 -3.314067,1.6467 -0.467149,0.3219 -0.533311,0.35365 -0.969145,0.70775 -0.670447,0.5447 -1.258375,1.18104 -1.868072,1.79054 -0.74462,0.76928 -1.498177,1.53029 -2.2395,2.30251 z" /><path
       style="fill:#554400;stroke-width:0.264583"
       id="path11"
       d="m 80.352171,167.22496 c 0.146553,-0.25229 0.426128,-0.74045 0.570717,-0.95267 0.166135,-0.24385 0.345956,-0.47816 0.524711,-0.71292 0.457161,-0.60038 0.757084,-0.98129 1.27911,-1.52766 0.23949,-0.25065 0.494993,-0.4855 0.742489,-0.72825 0.905489,-0.81838 1.882072,-1.56863 2.945705,-2.17162 0.528238,-0.29947 0.846415,-0.43186 1.397071,-0.68533 1.372714,-0.59673 2.819434,-0.99034 4.25776,-1.39199 1.21299,-0.31442 2.387102,-0.75633 3.493767,-1.34576 0.20342,-0.10834 0.400553,-0.2281 0.600829,-0.34215 0.220147,-0.1476 0.444233,-0.28949 0.660437,-0.44281 0.293299,-0.20798 1.057561,-0.80015 1.340493,-1.00988 0.680318,-0.50429 1.377796,-0.98583 2.06612,-1.47908 1.15384,-0.89412 2.32359,-1.76469 3.52459,-2.5943 1.13711,-0.78995 2.31389,-1.51686 3.52564,-2.18575 1.22213,-0.63774 2.55808,-1.00236 3.89401,-1.31189 1.10338,-0.19494 2.19163,-0.48536 3.21681,-0.94332 0.18002,-0.0804 0.35399,-0.17372 0.531,-0.26058 1.01588,-0.55913 1.80907,-1.41558 2.57848,-2.26553 0.56096,-0.61861 1.11379,-1.24297 1.64487,-1.88746 0.38558,-0.51224 0.84805,-0.95813 1.34053,-1.36572 0.65705,-0.5534 1.45409,-0.89517 2.22459,-1.2579 0.79587,-0.32496 1.4457,-0.79095 2.05737,-1.38731 0.37806,-0.36408 0.52158,-0.86863 0.76865,-1.31347 0.0487,-0.0877 0.10595,-0.17029 0.15893,-0.25543 0.39241,-0.57759 0.89059,-1.06594 1.40565,-1.53251 0.27827,-0.23974 0.56831,-0.47072 0.9298,-0.55945 0,0 -0.67031,-0.45935 -0.67031,-0.45935 v 0 c -0.36195,0.11516 -0.65757,0.34688 -0.9384,0.59835 -0.51837,0.47385 -1.01843,0.96939 -1.41895,1.54993 -0.0551,0.0872 -0.11498,0.17168 -0.16545,0.26171 -0.24427,0.43578 -0.37571,0.93599 -0.74751,1.29396 -0.23786,0.23341 -0.31028,0.3177 -0.57994,0.52587 -0.44655,0.34474 -0.94281,0.61928 -1.46043,0.84105 -0.7743,0.36922 -1.57576,0.71438 -2.23693,1.27293 -0.50133,0.40619 -0.96698,0.85671 -1.35125,1.37766 -0.52597,0.64605 -1.07754,1.26892 -1.63088,1.8916 -0.75835,0.84759 -1.54926,1.69183 -2.55902,2.24271 -0.17456,0.0863 -0.34604,0.17918 -0.52368,0.25897 -1.02218,0.45911 -2.10966,0.7309 -3.20804,0.93454 -1.33973,0.31801 -2.6839,0.68403 -3.9094,1.32732 -1.20961,0.67625 -2.38432,1.40806 -3.52568,2.19466 -1.20078,0.82843 -2.36357,1.70634 -3.515016,2.60199 -0.688869,0.49348 -1.385231,0.97719 -2.066544,1.48113 -0.251142,0.18576 -1.077613,0.81913 -1.341913,1.00329 -0.217072,0.15126 -0.443064,0.2893 -0.664594,0.43394 -0.533479,0.30244 -0.661905,0.38825 -1.218176,0.6512 -0.919446,0.43462 -1.877743,0.76999 -2.862495,1.02342 -1.44077,0.40224 -2.89006,0.79946 -4.262205,1.40381 -0.583081,0.27033 -0.840467,0.37387 -1.397995,0.69552 -1.061923,0.61267 -2.037201,1.36897 -2.941055,2.19434 -0.24933,0.2436 -0.507005,0.47894 -0.747993,0.73079 -0.510395,0.53341 -0.835459,0.94828 -1.289878,1.52857 -0.183642,0.2345 -0.370658,0.46668 -0.543695,0.70912 -0.215929,0.30253 -0.393446,0.63115 -0.605004,0.93666 z" /><path
       style="fill:#554400;stroke-width:0.264583"
       id="path12"
       d="m 95.557955,176.77027 c 0.08804,-0.56995 0.335098,-1.10016 0.637289,-1.58664 0.09869,-0.15888 0.196773,-0.31909 0.312468,-0.46606 0.13236,-0.16813 0.286535,-0.31788 0.429805,-0.47682 0.861999,-0.90092 1.901965,-1.5945 2.890935,-2.34289 0.832768,-0.65326 1.722998,-1.22468 2.673068,-1.692 0.23633,-0.11625 0.47789,-0.22157 0.71683,-0.33236 1.136,-0.54803 2.36519,-0.85859 3.52519,-1.3455 0.17572,-0.0738 0.34651,-0.15873 0.51977,-0.23809 0.15665,-0.0831 0.31408,-0.1647 0.46995,-0.24923 0.36822,-0.19968 0.47527,-0.25516 0.81693,-0.49394 0.37537,-0.26234 0.72458,-0.55942 1.07475,-0.85369 0.77187,-0.6643 1.54846,-1.32286 2.32667,-1.97971 0.80303,-0.65252 1.54262,-1.37699 2.33293,-2.04379 0.33324,-0.24668 0.79529,-0.60156 1.14973,-0.8086 0.86136,-0.50313 1.80162,-0.87597 2.74694,-1.18651 0.31026,-0.10191 0.62573,-0.18723 0.93859,-0.28085 0.88491,-0.24821 1.78783,-0.44426 2.64693,-0.77775 0.83063,-0.32243 1.60873,-0.75121 2.38384,-1.18557 0.62276,-0.48198 0.85832,-0.63587 1.4219,-1.18429 0.21859,-0.2127 0.42255,-0.43999 0.62907,-0.66442 0.6528,-0.7094 1.27276,-1.44795 1.89532,-2.18366 1.04843,-1.21716 2.12717,-2.41265 3.30473,-3.50698 0.45906,-0.41577 0.95849,-0.77993 1.51431,-1.05596 0.38826,-0.19282 0.53317,-0.23262 0.94218,-0.38186 0.57251,-0.2256 1.1835,-0.33812 1.75766,-0.55834 0.28892,-0.11082 0.33461,-0.15285 0.59505,-0.30829 0.63933,-0.43399 1.1386,-1.0406 1.65739,-1.60596 0.42226,-0.45603 0.85895,-0.90246 1.36298,-1.26981 0.56151,-0.40925 1.17382,-0.75295 1.77857,-1.09222 0.85895,-0.42727 1.62523,-1.00774 2.4439,-1.50135 0.42586,-0.25263 0.86309,-0.46683 1.33216,-0.625 0,0 -0.6655,-0.45042 -0.6655,-0.45042 v 0 c -0.46958,0.16674 -0.91062,0.38402 -1.33708,0.64238 -0.80914,0.50021 -1.56588,1.0858 -2.41964,1.51386 -0.60633,0.34401 -1.22399,0.68992 -1.78846,1.10125 -0.50696,0.36942 -0.94574,0.82002 -1.37252,1.27655 -0.52502,0.55218 -1.02927,1.1443 -1.66292,1.57588 -0.25656,0.15028 -0.29796,0.18805 -0.58098,0.29729 -0.57236,0.2209 -1.17966,0.34089 -1.75078,0.56593 -0.41517,0.15363 -0.55666,0.19269 -0.95062,0.39053 -0.56011,0.28129 -1.06622,0.6471 -1.52512,1.07285 -1.15513,1.11666 -2.21516,2.3272 -3.2706,3.53709 -0.6307,0.7277 -1.24955,1.46697 -1.90309,2.17453 -0.20557,0.22256 -0.40835,0.4482 -0.62566,0.65932 -0.59095,0.5741 -0.76016,0.66948 -1.41876,1.16671 -0.7713,0.43497 -1.54157,0.85903 -2.37084,1.17716 -0.60634,0.23261 -1.12188,0.36326 -1.74752,0.53562 -0.29754,0.082 -0.59554,0.16229 -0.89331,0.24344 -1.27449,0.38826 -2.5513,0.80964 -3.71375,1.47551 -0.31059,0.17792 -0.8708,0.59269 -1.16828,0.80723 -0.78919,0.6679 -1.53323,1.38643 -2.33067,2.04507 -0.77997,0.65614 -1.56165,1.31024 -2.33452,1.97477 -0.73077,0.61618 -1.46833,1.1795 -2.34217,1.58427 -0.17118,0.0789 -0.34008,0.16295 -0.51354,0.23671 -1.15652,0.49186 -2.37951,0.81576 -3.51662,1.3568 -0.24148,0.11065 -0.48574,0.21543 -0.72444,0.33196 -0.95655,0.46698 -1.85132,1.04101 -2.689385,1.69649 -0.99632,0.74524 -2.021343,1.46441 -2.893266,2.35871 -0.147098,0.16103 -0.305496,0.31241 -0.441296,0.48308 -0.117623,0.14783 -0.216705,0.3097 -0.316939,0.46983 -0.310476,0.496 -0.560451,1.03397 -0.686017,1.60759 z" /></g></svg>
