<?xml version="1.0" encoding="UTF-8" standalone="no"?>
<!-- Created with Inkscape (http://www.inkscape.org/) -->

<svg
   width="210mm"
   height="297mm"
   viewBox="0 0 210 297"
   version="1.1"
   id="svg1"
   xml:space="preserve"
   inkscape:version="1.3.2 (091e20e, 2023-11-25, custom)"
   sodipodi:docname="pc.svg"
   xmlns:inkscape="http://www.inkscape.org/namespaces/inkscape"
   xmlns:sodipodi="http://sodipodi.sourceforge.net/DTD/sodipodi-0.dtd"
   xmlns="http://www.w3.org/2000/svg"
   xmlns:svg="http://www.w3.org/2000/svg"><sodipodi:namedview
     id="namedview1"
     pagecolor="#ffffff"
     bordercolor="#000000"
     borderopacity="0.25"
     inkscape:showpageshadow="2"
     inkscape:pageopacity="0.0"
     inkscape:pagecheckerboard="0"
     inkscape:deskcolor="#d1d1d1"
     inkscape:document-units="mm"
     showgrid="true"
     inkscape:zoom="2.8044052"
     inkscape:cx="409.71255"
     inkscape:cy="490.12176"
     inkscape:window-width="1920"
     inkscape:window-height="1001"
     inkscape:window-x="-9"
     inkscape:window-y="-9"
     inkscape:window-maximized="1"
     inkscape:current-layer="layer1"><inkscape:grid
       type="axonomgrid"
       id="grid1"
       units="mm"
       originx="0"
       originy="0"
       spacingx="0"
       spacingy="1"
       empcolor="#0099e5"
       empopacity="0.30196078"
       color="#0099e5"
       opacity="0.14901961"
       empspacing="5"
       dotted="false"
       gridanglex="30"
       gridanglez="30"
       visible="true" /></sodipodi:namedview><defs
     id="defs1" /><g
     inkscape:label="Layer 1"
     inkscape:groupmode="layer"
     id="layer1"><path
       d="m 122.97544,144 -12.12433,7.00009 v 2.99981 l 12.12433,-7.00009 z"
       style="opacity:1;fill:#4a4643;stroke:#000000;stroke-width:0.2;stroke-linejoin:round;fill-opacity:1;stroke-opacity:0;stroke-linecap:butt;paint-order:normal"
       id="path31" /><path
       d="M 110.85111,151.00009 89.200757,138.50007 v 2.99982 l 21.650353,12.50001 z"
       style="opacity:1;fill:#302c29;stroke:#302c29;stroke-width:0.2;stroke-linejoin:round;fill-opacity:1;stroke-opacity:1;stroke-linecap:butt;paint-order:normal"
       id="path29" /><path
       d="m 122.97544,144 -21.65036,-12.50002 -12.124323,7.00009 21.650353,12.50002 z"
       style="opacity:1;fill:#828887;stroke:#828887;stroke-width:0.2;stroke-linejoin:round;fill-opacity:1;stroke-opacity:1;stroke-linecap:butt;paint-order:normal"
       id="path30" /><path
       d="m 110.85111,112.99982 -2.59777,1.50017 L 129.9037,127 l 2.59829,-1.50017 z"
       style="opacity:1;fill:#686868;stroke:#686868;stroke-width:0.2;stroke-linejoin:round;fill-opacity:1;stroke-opacity:1;stroke-linecap:butt;paint-order:normal"
       id="path40" /><path
       d="M 132.50199,125.49983 129.9037,127 v 1.99988 l -2.59778,1.50016 v 2.99982 l -1.73219,0.99994 v 3.00033 l -2.59829,1.49965 V 144 l 2.59829,-1.50017 v -1.99988 l 1.73219,-0.99994 v -2.99981 l 2.59778,-1.50017 v -2.99982 l 2.59829,-1.50017 z"
       style="opacity:1;fill:#484646;stroke:#484646;stroke-width:0.2;stroke-linejoin:round;fill-opacity:1;stroke-opacity:1;stroke-linecap:butt;paint-order:normal"
       id="path32" /><path
       d="m 120.37767,137.50013 2.59777,-1.50016 v -2.99982 l 1.73219,-0.99994 v -3.00033 l 2.59829,-1.49965 -16.45481,-9.5002 -2.59777,1.50017 v 2.99982 l -1.73219,0.99994 v 2.99981 l -2.59829,1.50017 v 2.99982 l 16.45481,9.53998 z"
       style="opacity:1;fill:none;stroke:#000000;stroke-width:0.2;stroke-linejoin:round;stroke-linecap:butt;paint-order:normal"
       id="path46" /><path
       d="m 101.32508,126.49977 2.59778,1.50017 2.59829,-1.50017 -2.59829,-1.49965 z"
       style="opacity:1;fill:#727675;stroke:#727675;stroke-width:0.2;stroke-linejoin:round;fill-opacity:1;stroke-opacity:1;stroke-linecap:butt;paint-order:normal"
       id="path45" /><path
       d="m 103.92286,125.00012 2.59829,1.49965 v -2.99981 l -2.59829,-1.50017 z"
       style="opacity:1;fill:#343635;stroke:#343635;stroke-width:0.2;stroke-linejoin:round;fill-opacity:1;stroke-opacity:1;stroke-linecap:butt;paint-order:normal"
       id="path44" /><path
       d="m 103.92286,121.99979 2.59829,1.50017 1.73219,-0.99994 -2.59829,-1.50017 z"
       style="opacity:1;fill:#707473;stroke:#707473;stroke-width:0.2;stroke-linejoin:round;fill-opacity:1;stroke-opacity:1;stroke-linecap:butt;paint-order:normal"
       id="path43" /><path
       d="m 105.65505,120.99985 2.59829,1.50017 v -2.99982 l -2.59829,-1.50017 z"
       style="opacity:1;fill:#353938;stroke:#353938;stroke-width:0.2;stroke-linejoin:round;fill-opacity:1;stroke-opacity:1;stroke-linecap:butt;paint-order:normal"
       id="path42" /><path
       d="m 105.65505,118.00003 2.59829,1.50017 2.59777,-1.50017 -2.59777,-1.50016 z"
       style="opacity:1;fill:#636363;stroke:#636363;stroke-width:0.2;stroke-linejoin:round;fill-opacity:1;stroke-opacity:1;stroke-linecap:butt;paint-order:normal"
       id="path41" /><path
       d="m 108.25334,116.49987 2.59777,1.50016 16.45481,9.5002 2.59778,1.49965 V 127 l -21.65036,-12.50001 z"
       style="opacity:1;fill:#3b403e;stroke:#000000;stroke-width:0.2;stroke-linejoin:round;fill-opacity:1;stroke-opacity:0;stroke-linecap:butt;paint-order:normal"
       id="path39" /><path
       d="m 129.9037,128.99988 -2.59778,-1.49965 -2.59829,1.49965 2.59829,1.50016 z"
       style="opacity:1;fill:#626262;stroke:#626262;stroke-width:0.2;stroke-linejoin:round;fill-opacity:1;stroke-opacity:1;stroke-linecap:butt;paint-order:normal"
       id="path38" /><path
       d="m 127.30592,130.50004 -2.59829,-1.50016 v 3.00033 l 2.59829,1.49965 z"
       style="opacity:1;fill:#383b3a;stroke:#383b3a;stroke-width:0.2;stroke-linejoin:round;fill-opacity:1;stroke-opacity:1;stroke-linecap:butt;paint-order:normal"
       id="path37" /><path
       d="m 127.30592,133.49986 -2.59829,-1.49965 -1.73219,0.99994 2.59829,1.49965 z"
       style="opacity:1;fill:#6c6f6e;stroke:#6c6f6e;stroke-width:0.2;stroke-linejoin:round;fill-opacity:1;stroke-opacity:1;stroke-linecap:butt;paint-order:normal"
       id="path36" /><path
       d="m 125.57373,134.4998 -2.59829,-1.49965 v 2.99982 l 2.59829,1.50016 z"
       style="opacity:1;fill:#343635;stroke:#343635;stroke-width:0.2;stroke-linejoin:round;fill-opacity:1;stroke-opacity:1;stroke-linecap:butt;paint-order:normal"
       id="path35" /><path
       d="m 125.57373,137.50013 -2.59829,-1.50016 -2.59777,1.50016 2.59777,1.49965 z"
       style="opacity:1;fill:#6d6f6f;stroke:#6d6f6f;stroke-width:0.2;stroke-linejoin:round;fill-opacity:1;stroke-opacity:1;stroke-linecap:butt;paint-order:normal"
       id="path34" /><path
       d="m 122.97544,144 v -5.00022 l -2.59777,-1.49965 v 3.03961 l -16.45481,-9.53998 v -2.99982 l -2.59778,-1.50017 v 5.00021 z"
       style="opacity:1;fill:#272726;stroke:#272726;stroke-width:0.2;stroke-linejoin:round;fill-opacity:1;stroke-opacity:1;stroke-linecap:butt;paint-order:normal"
       id="path33" /><path
       style="opacity:1;fill:#ffffff;fill-opacity:1;stroke:#ffffff;stroke-width:0.2;stroke-linecap:butt;stroke-linejoin:round;stroke-dasharray:none;stroke-dashoffset:0;stroke-opacity:1;paint-order:normal"
       d="m 120.37767,140.53974 -16.45463,-9.50008 v -3.03983 l 2.59794,-1.49992 v -3.00005 l 1.732,-0.99997 v -2.99979 l 2.59817,-1.50005 16.45448,9.5 -2.59789,1.49989 v 3.00033 l -1.7323,1.00015 v 2.99955 l -2.59802,1.49996 z"
       id="path63" /></g></svg>
